<mxfile host="app.diagrams.net" modified="2024-02-06T07:58:48.941Z" agent="Mozilla/5.0 (Windows NT 10.0; Win64; x64) AppleWebKit/537.36 (KHTML, like Gecko) Chrome/121.0.0.0 Safari/537.36" etag="H7bpYhqK9WA_mg5Ntmfv" version="23.1.1" type="github">
  <diagram id="C5RBs43oDa-KdzZeNtuy" name="Page-1">
    <mxGraphModel dx="1434" dy="780" grid="1" gridSize="10" guides="1" tooltips="1" connect="1" arrows="1" fold="1" page="1" pageScale="1" pageWidth="827" pageHeight="1169" math="0" shadow="0">
      <root>
        <mxCell id="WIyWlLk6GJQsqaUBKTNV-0" />
        <mxCell id="WIyWlLk6GJQsqaUBKTNV-1" parent="WIyWlLk6GJQsqaUBKTNV-0" />
        <mxCell id="7_3hip3ltRMuxe3Jdvcr-27" value="" style="endArrow=none;html=1;rounded=0;" edge="1" parent="WIyWlLk6GJQsqaUBKTNV-1">
          <mxGeometry width="50" height="50" relative="1" as="geometry">
            <mxPoint x="160" y="160" as="sourcePoint" />
            <mxPoint x="160" y="160" as="targetPoint" />
          </mxGeometry>
        </mxCell>
        <mxCell id="7_3hip3ltRMuxe3Jdvcr-44" value="" style="swimlane;whiteSpace=wrap;html=1;" vertex="1" parent="WIyWlLk6GJQsqaUBKTNV-1">
          <mxGeometry x="70" y="98" width="190" height="180" as="geometry" />
        </mxCell>
        <mxCell id="7_3hip3ltRMuxe3Jdvcr-45" value="kategori_ buku" style="text;html=1;strokeColor=none;fillColor=none;align=center;verticalAlign=middle;whiteSpace=wrap;rounded=0;" vertex="1" parent="7_3hip3ltRMuxe3Jdvcr-44">
          <mxGeometry x="20" width="120" height="30" as="geometry" />
        </mxCell>
        <mxCell id="7_3hip3ltRMuxe3Jdvcr-46" value="id: int" style="text;html=1;strokeColor=none;fillColor=none;align=center;verticalAlign=middle;whiteSpace=wrap;rounded=0;" vertex="1" parent="7_3hip3ltRMuxe3Jdvcr-44">
          <mxGeometry y="30" width="60" height="30" as="geometry" />
        </mxCell>
        <mxCell id="7_3hip3ltRMuxe3Jdvcr-49" value="nama: char" style="text;html=1;align=center;verticalAlign=middle;resizable=0;points=[];autosize=1;strokeColor=none;fillColor=none;" vertex="1" parent="7_3hip3ltRMuxe3Jdvcr-44">
          <mxGeometry y="50" width="80" height="30" as="geometry" />
        </mxCell>
        <mxCell id="7_3hip3ltRMuxe3Jdvcr-50" value="keterangan: char" style="text;html=1;align=center;verticalAlign=middle;resizable=0;points=[];autosize=1;strokeColor=none;fillColor=none;" vertex="1" parent="7_3hip3ltRMuxe3Jdvcr-44">
          <mxGeometry y="75" width="110" height="30" as="geometry" />
        </mxCell>
        <mxCell id="7_3hip3ltRMuxe3Jdvcr-51" value="" style="endArrow=none;html=1;rounded=0;" edge="1" parent="7_3hip3ltRMuxe3Jdvcr-44">
          <mxGeometry width="50" height="50" relative="1" as="geometry">
            <mxPoint y="150" as="sourcePoint" />
            <mxPoint x="190" y="150" as="targetPoint" />
          </mxGeometry>
        </mxCell>
        <mxCell id="7_3hip3ltRMuxe3Jdvcr-52" value="tampilkan()" style="text;html=1;align=center;verticalAlign=middle;resizable=0;points=[];autosize=1;strokeColor=none;fillColor=none;" vertex="1" parent="WIyWlLk6GJQsqaUBKTNV-1">
          <mxGeometry x="70" y="248" width="80" height="30" as="geometry" />
        </mxCell>
        <mxCell id="7_3hip3ltRMuxe3Jdvcr-54" value="Buku" style="swimlane;whiteSpace=wrap;html=1;" vertex="1" parent="WIyWlLk6GJQsqaUBKTNV-1">
          <mxGeometry x="460" y="100" width="160" height="270" as="geometry" />
        </mxCell>
        <mxCell id="7_3hip3ltRMuxe3Jdvcr-56" value="id: int" style="text;html=1;align=center;verticalAlign=middle;resizable=0;points=[];autosize=1;strokeColor=none;fillColor=none;" vertex="1" parent="7_3hip3ltRMuxe3Jdvcr-54">
          <mxGeometry y="20" width="50" height="30" as="geometry" />
        </mxCell>
        <mxCell id="7_3hip3ltRMuxe3Jdvcr-57" value="created_at: datetime&lt;br&gt;" style="text;html=1;align=center;verticalAlign=middle;resizable=0;points=[];autosize=1;strokeColor=none;fillColor=none;" vertex="1" parent="7_3hip3ltRMuxe3Jdvcr-54">
          <mxGeometry y="40" width="130" height="30" as="geometry" />
        </mxCell>
        <mxCell id="7_3hip3ltRMuxe3Jdvcr-58" value="judul: char" style="text;html=1;align=center;verticalAlign=middle;resizable=0;points=[];autosize=1;strokeColor=none;fillColor=none;" vertex="1" parent="7_3hip3ltRMuxe3Jdvcr-54">
          <mxGeometry y="60" width="80" height="30" as="geometry" />
        </mxCell>
        <mxCell id="7_3hip3ltRMuxe3Jdvcr-59" value="penulis: char" style="text;html=1;align=center;verticalAlign=middle;resizable=0;points=[];autosize=1;strokeColor=none;fillColor=none;" vertex="1" parent="7_3hip3ltRMuxe3Jdvcr-54">
          <mxGeometry y="80" width="90" height="30" as="geometry" />
        </mxCell>
        <mxCell id="7_3hip3ltRMuxe3Jdvcr-60" value="deskripsi: char" style="text;html=1;align=center;verticalAlign=middle;resizable=0;points=[];autosize=1;strokeColor=none;fillColor=none;" vertex="1" parent="7_3hip3ltRMuxe3Jdvcr-54">
          <mxGeometry y="100" width="100" height="30" as="geometry" />
        </mxCell>
        <mxCell id="7_3hip3ltRMuxe3Jdvcr-61" value="tahun_terbit; int" style="text;html=1;align=center;verticalAlign=middle;resizable=0;points=[];autosize=1;strokeColor=none;fillColor=none;" vertex="1" parent="7_3hip3ltRMuxe3Jdvcr-54">
          <mxGeometry y="120" width="110" height="30" as="geometry" />
        </mxCell>
        <mxCell id="7_3hip3ltRMuxe3Jdvcr-62" value="penerbit: char" style="text;html=1;align=center;verticalAlign=middle;resizable=0;points=[];autosize=1;strokeColor=none;fillColor=none;" vertex="1" parent="7_3hip3ltRMuxe3Jdvcr-54">
          <mxGeometry y="140" width="100" height="30" as="geometry" />
        </mxCell>
        <mxCell id="7_3hip3ltRMuxe3Jdvcr-63" value="kategori: int(FK)" style="text;html=1;align=center;verticalAlign=middle;resizable=0;points=[];autosize=1;strokeColor=none;fillColor=none;" vertex="1" parent="7_3hip3ltRMuxe3Jdvcr-54">
          <mxGeometry y="160" width="110" height="30" as="geometry" />
        </mxCell>
        <mxCell id="7_3hip3ltRMuxe3Jdvcr-64" value="rak: int" style="text;html=1;align=center;verticalAlign=middle;resizable=0;points=[];autosize=1;strokeColor=none;fillColor=none;" vertex="1" parent="7_3hip3ltRMuxe3Jdvcr-54">
          <mxGeometry y="178" width="60" height="30" as="geometry" />
        </mxCell>
        <mxCell id="7_3hip3ltRMuxe3Jdvcr-65" value="" style="endArrow=none;html=1;rounded=0;" edge="1" parent="7_3hip3ltRMuxe3Jdvcr-54">
          <mxGeometry width="50" height="50" relative="1" as="geometry">
            <mxPoint y="220" as="sourcePoint" />
            <mxPoint x="160" y="220" as="targetPoint" />
          </mxGeometry>
        </mxCell>
        <mxCell id="7_3hip3ltRMuxe3Jdvcr-67" value="tampilkan_buku()" style="text;strokeColor=none;align=center;fillColor=none;html=1;verticalAlign=middle;whiteSpace=wrap;rounded=0;" vertex="1" parent="7_3hip3ltRMuxe3Jdvcr-54">
          <mxGeometry x="20" y="220" width="60" height="30" as="geometry" />
        </mxCell>
        <mxCell id="7_3hip3ltRMuxe3Jdvcr-68" value="cari_buku()" style="text;html=1;align=center;verticalAlign=middle;resizable=0;points=[];autosize=1;strokeColor=none;fillColor=none;" vertex="1" parent="7_3hip3ltRMuxe3Jdvcr-54">
          <mxGeometry y="240" width="80" height="30" as="geometry" />
        </mxCell>
        <mxCell id="7_3hip3ltRMuxe3Jdvcr-74" value="keanggotaan" style="swimlane;whiteSpace=wrap;html=1;" vertex="1" parent="WIyWlLk6GJQsqaUBKTNV-1">
          <mxGeometry x="65" y="440" width="195" height="150" as="geometry" />
        </mxCell>
        <mxCell id="7_3hip3ltRMuxe3Jdvcr-76" value="nama: char" style="text;html=1;align=center;verticalAlign=middle;resizable=0;points=[];autosize=1;strokeColor=none;fillColor=none;" vertex="1" parent="7_3hip3ltRMuxe3Jdvcr-74">
          <mxGeometry y="50" width="80" height="30" as="geometry" />
        </mxCell>
        <mxCell id="7_3hip3ltRMuxe3Jdvcr-77" value="keterangan: char" style="text;html=1;align=center;verticalAlign=middle;resizable=0;points=[];autosize=1;strokeColor=none;fillColor=none;" vertex="1" parent="7_3hip3ltRMuxe3Jdvcr-74">
          <mxGeometry y="78" width="110" height="30" as="geometry" />
        </mxCell>
        <mxCell id="7_3hip3ltRMuxe3Jdvcr-78" value="" style="endArrow=none;html=1;rounded=0;" edge="1" parent="7_3hip3ltRMuxe3Jdvcr-74">
          <mxGeometry width="50" height="50" relative="1" as="geometry">
            <mxPoint x="-5" y="120" as="sourcePoint" />
            <mxPoint x="195" y="120" as="targetPoint" />
          </mxGeometry>
        </mxCell>
        <mxCell id="7_3hip3ltRMuxe3Jdvcr-80" value="tampilkan()" style="edgeLabel;html=1;align=center;verticalAlign=middle;resizable=0;points=[];" vertex="1" connectable="0" parent="7_3hip3ltRMuxe3Jdvcr-78">
          <mxGeometry x="-0.07" y="-4" relative="1" as="geometry">
            <mxPoint x="-13" y="6" as="offset" />
          </mxGeometry>
        </mxCell>
        <mxCell id="7_3hip3ltRMuxe3Jdvcr-75" value="id:int" style="text;html=1;align=center;verticalAlign=middle;resizable=0;points=[];autosize=1;strokeColor=none;fillColor=none;" vertex="1" parent="WIyWlLk6GJQsqaUBKTNV-1">
          <mxGeometry x="65" y="468" width="50" height="30" as="geometry" />
        </mxCell>
        <mxCell id="7_3hip3ltRMuxe3Jdvcr-81" value="pengunjung" style="swimlane;whiteSpace=wrap;html=1;" vertex="1" parent="WIyWlLk6GJQsqaUBKTNV-1">
          <mxGeometry x="440" y="440" width="170" height="250" as="geometry" />
        </mxCell>
        <mxCell id="7_3hip3ltRMuxe3Jdvcr-82" value="id : int&lt;br&gt;" style="text;html=1;align=center;verticalAlign=middle;resizable=0;points=[];autosize=1;strokeColor=none;fillColor=none;" vertex="1" parent="7_3hip3ltRMuxe3Jdvcr-81">
          <mxGeometry y="28" width="60" height="30" as="geometry" />
        </mxCell>
        <mxCell id="7_3hip3ltRMuxe3Jdvcr-83" value="tanggal: date" style="text;html=1;align=center;verticalAlign=middle;resizable=0;points=[];autosize=1;strokeColor=none;fillColor=none;" vertex="1" parent="7_3hip3ltRMuxe3Jdvcr-81">
          <mxGeometry y="50" width="90" height="30" as="geometry" />
        </mxCell>
        <mxCell id="7_3hip3ltRMuxe3Jdvcr-84" value="waktu: time" style="text;html=1;align=center;verticalAlign=middle;resizable=0;points=[];autosize=1;strokeColor=none;fillColor=none;" vertex="1" parent="7_3hip3ltRMuxe3Jdvcr-81">
          <mxGeometry y="70" width="80" height="30" as="geometry" />
        </mxCell>
        <mxCell id="7_3hip3ltRMuxe3Jdvcr-85" value="name: char" style="text;html=1;align=center;verticalAlign=middle;resizable=0;points=[];autosize=1;strokeColor=none;fillColor=none;" vertex="1" parent="7_3hip3ltRMuxe3Jdvcr-81">
          <mxGeometry y="90" width="80" height="30" as="geometry" />
        </mxCell>
        <mxCell id="7_3hip3ltRMuxe3Jdvcr-86" value="keanggotaan: int(FK)" style="text;html=1;align=center;verticalAlign=middle;resizable=0;points=[];autosize=1;strokeColor=none;fillColor=none;" vertex="1" parent="7_3hip3ltRMuxe3Jdvcr-81">
          <mxGeometry y="110" width="140" height="30" as="geometry" />
        </mxCell>
        <mxCell id="7_3hip3ltRMuxe3Jdvcr-88" value="tingkat: int" style="text;html=1;align=center;verticalAlign=middle;resizable=0;points=[];autosize=1;strokeColor=none;fillColor=none;" vertex="1" parent="7_3hip3ltRMuxe3Jdvcr-81">
          <mxGeometry y="130" width="80" height="30" as="geometry" />
        </mxCell>
        <mxCell id="7_3hip3ltRMuxe3Jdvcr-89" value="jurusan: char" style="text;html=1;align=center;verticalAlign=middle;resizable=0;points=[];autosize=1;strokeColor=none;fillColor=none;" vertex="1" parent="7_3hip3ltRMuxe3Jdvcr-81">
          <mxGeometry y="150" width="90" height="30" as="geometry" />
        </mxCell>
        <mxCell id="7_3hip3ltRMuxe3Jdvcr-96" value="kelas: char" style="text;html=1;align=center;verticalAlign=middle;resizable=0;points=[];autosize=1;strokeColor=none;fillColor=none;" vertex="1" parent="7_3hip3ltRMuxe3Jdvcr-81">
          <mxGeometry y="168" width="80" height="30" as="geometry" />
        </mxCell>
        <mxCell id="7_3hip3ltRMuxe3Jdvcr-97" value="keperluan: int(FK)" style="text;html=1;align=center;verticalAlign=middle;resizable=0;points=[];autosize=1;strokeColor=none;fillColor=none;" vertex="1" parent="7_3hip3ltRMuxe3Jdvcr-81">
          <mxGeometry y="190" width="120" height="30" as="geometry" />
        </mxCell>
        <mxCell id="7_3hip3ltRMuxe3Jdvcr-99" value="" style="line;strokeWidth=1;rotatable=0;dashed=0;labelPosition=right;align=left;verticalAlign=middle;spacingTop=0;spacingLeft=6;points=[];portConstraint=eastwest;" vertex="1" parent="7_3hip3ltRMuxe3Jdvcr-81">
          <mxGeometry y="210" width="165" height="10" as="geometry" />
        </mxCell>
        <mxCell id="7_3hip3ltRMuxe3Jdvcr-100" value="tampilkan()&lt;br&gt;tambah()" style="text;strokeColor=none;fillColor=none;spacingLeft=4;spacingRight=4;overflow=hidden;rotatable=0;points=[[0,0.5],[1,0.5]];portConstraint=eastwest;fontSize=12;whiteSpace=wrap;html=1;" vertex="1" parent="7_3hip3ltRMuxe3Jdvcr-81">
          <mxGeometry x="7.5" y="210" width="75" height="30" as="geometry" />
        </mxCell>
        <mxCell id="7_3hip3ltRMuxe3Jdvcr-101" value="" style="edgeStyle=entityRelationEdgeStyle;fontSize=12;html=1;endArrow=ERoneToMany;rounded=0;exitX=1;exitY=0.25;exitDx=0;exitDy=0;entryX=0.018;entryY=0.633;entryDx=0;entryDy=0;entryPerimeter=0;" edge="1" parent="WIyWlLk6GJQsqaUBKTNV-1" source="7_3hip3ltRMuxe3Jdvcr-44" target="7_3hip3ltRMuxe3Jdvcr-63">
          <mxGeometry width="100" height="100" relative="1" as="geometry">
            <mxPoint x="410" y="390" as="sourcePoint" />
            <mxPoint x="510" y="290" as="targetPoint" />
          </mxGeometry>
        </mxCell>
        <mxCell id="7_3hip3ltRMuxe3Jdvcr-102" value="" style="edgeStyle=entityRelationEdgeStyle;fontSize=12;html=1;endArrow=ERzeroToMany;endFill=1;rounded=0;exitX=1;exitY=0.25;exitDx=0;exitDy=0;entryX=-0.014;entryY=0.433;entryDx=0;entryDy=0;entryPerimeter=0;" edge="1" parent="WIyWlLk6GJQsqaUBKTNV-1" source="7_3hip3ltRMuxe3Jdvcr-74" target="7_3hip3ltRMuxe3Jdvcr-86">
          <mxGeometry width="100" height="100" relative="1" as="geometry">
            <mxPoint x="230" y="740" as="sourcePoint" />
            <mxPoint x="330" y="640" as="targetPoint" />
          </mxGeometry>
        </mxCell>
        <mxCell id="7_3hip3ltRMuxe3Jdvcr-132" value="keperluan" style="swimlane;fontStyle=0;childLayout=stackLayout;horizontal=1;startSize=26;horizontalStack=0;resizeParent=1;resizeParentMax=0;resizeLast=0;collapsible=1;marginBottom=0;align=center;fontSize=14;" vertex="1" parent="WIyWlLk6GJQsqaUBKTNV-1">
          <mxGeometry x="65" y="760" width="160" height="160" as="geometry" />
        </mxCell>
        <mxCell id="7_3hip3ltRMuxe3Jdvcr-133" value="id: int" style="text;strokeColor=none;fillColor=none;spacingLeft=4;spacingRight=4;overflow=hidden;rotatable=0;points=[[0,0.5],[1,0.5]];portConstraint=eastwest;fontSize=12;whiteSpace=wrap;html=1;" vertex="1" parent="7_3hip3ltRMuxe3Jdvcr-132">
          <mxGeometry y="26" width="160" height="30" as="geometry" />
        </mxCell>
        <mxCell id="7_3hip3ltRMuxe3Jdvcr-137" value="" style="endArrow=none;html=1;rounded=0;" edge="1" parent="7_3hip3ltRMuxe3Jdvcr-132" source="7_3hip3ltRMuxe3Jdvcr-134">
          <mxGeometry relative="1" as="geometry">
            <mxPoint y="87.5" as="sourcePoint" />
            <mxPoint x="160" y="87.5" as="targetPoint" />
          </mxGeometry>
        </mxCell>
        <mxCell id="7_3hip3ltRMuxe3Jdvcr-134" value="nama: char" style="text;strokeColor=none;fillColor=none;spacingLeft=4;spacingRight=4;overflow=hidden;rotatable=0;points=[[0,0.5],[1,0.5]];portConstraint=eastwest;fontSize=12;whiteSpace=wrap;html=1;" vertex="1" parent="7_3hip3ltRMuxe3Jdvcr-132">
          <mxGeometry y="56" width="160" height="64" as="geometry" />
        </mxCell>
        <mxCell id="7_3hip3ltRMuxe3Jdvcr-140" value="" style="line;strokeWidth=1;rotatable=0;dashed=0;labelPosition=right;align=left;verticalAlign=middle;spacingTop=0;spacingLeft=6;points=[];portConstraint=eastwest;" vertex="1" parent="7_3hip3ltRMuxe3Jdvcr-132">
          <mxGeometry y="120" width="160" height="10" as="geometry" />
        </mxCell>
        <mxCell id="7_3hip3ltRMuxe3Jdvcr-138" value="tampilkan()" style="text;strokeColor=none;fillColor=none;spacingLeft=4;spacingRight=4;overflow=hidden;rotatable=0;points=[[0,0.5],[1,0.5]];portConstraint=eastwest;fontSize=12;whiteSpace=wrap;html=1;" vertex="1" parent="7_3hip3ltRMuxe3Jdvcr-132">
          <mxGeometry y="130" width="160" height="30" as="geometry" />
        </mxCell>
        <mxCell id="7_3hip3ltRMuxe3Jdvcr-143" value="" style="edgeStyle=entityRelationEdgeStyle;fontSize=12;html=1;endArrow=ERoneToMany;startArrow=ERoneToMany;rounded=0;entryX=0.017;entryY=0.433;entryDx=0;entryDy=0;entryPerimeter=0;" edge="1" parent="WIyWlLk6GJQsqaUBKTNV-1" source="7_3hip3ltRMuxe3Jdvcr-133" target="7_3hip3ltRMuxe3Jdvcr-97">
          <mxGeometry width="100" height="100" relative="1" as="geometry">
            <mxPoint x="230" y="800" as="sourcePoint" />
            <mxPoint x="330" y="700" as="targetPoint" />
          </mxGeometry>
        </mxCell>
      </root>
    </mxGraphModel>
  </diagram>
</mxfile>
